<svg width="315" height="165" viewBox="0 0 315 165" fill="none" xmlns="http://www.w3.org/2000/svg">
<rect width="10" height="10" transform="matrix(-0.707107 -0.707107 -0.707107 0.707107 315 7.07104)" fill="url(#paint0_linear_78_230)"/>
<rect width="10" height="10" transform="matrix(-0.707107 -0.707107 -0.707107 0.707107 285 7.07104)" fill="url(#paint1_linear_78_230)"/>
<rect width="10" height="10" transform="matrix(-0.707107 -0.707107 -0.707107 0.707107 255 7.07104)" fill="url(#paint2_linear_78_230)"/>
<rect width="10" height="10" transform="matrix(-0.707107 -0.707107 -0.707107 0.707107 225 7.07104)" fill="url(#paint3_linear_78_230)"/>
<rect width="10" height="10" transform="matrix(-0.707107 -0.707107 -0.707107 0.707107 195 7.07104)" fill="url(#paint4_linear_78_230)"/>
<rect width="10" height="10" transform="matrix(-0.707107 -0.707107 -0.707107 0.707107 165 7.07104)" fill="url(#paint5_linear_78_230)"/>
<rect width="10" height="10" transform="matrix(-0.707107 -0.707107 -0.707107 0.707107 135 7.07104)" fill="url(#paint6_linear_78_230)"/>
<rect width="10" height="10" transform="matrix(-0.707107 -0.707107 -0.707107 0.707107 105 7.07104)" fill="url(#paint7_linear_78_230)"/>
<rect width="10" height="10" transform="matrix(-0.707107 -0.707107 -0.707107 0.707107 75 7.07104)" fill="url(#paint8_linear_78_230)"/>
<rect width="10" height="10" transform="matrix(-0.707107 -0.707107 -0.707107 0.707107 75 7.07104)" fill="url(#paint9_linear_78_230)"/>
<rect width="10" height="10" transform="matrix(-0.707107 -0.707107 -0.707107 0.707107 45 7.07104)" fill="url(#paint10_linear_78_230)"/>
<rect width="10" height="10" transform="matrix(-0.707107 -0.707107 -0.707107 0.707107 15 7.07104)" fill="url(#paint11_linear_78_230)"/>
<rect width="10" height="10" transform="matrix(-0.707107 -0.707107 -0.707107 0.707107 315 37.2131)" fill="url(#paint12_linear_78_230)"/>
<rect width="10" height="10" transform="matrix(-0.707107 -0.707107 -0.707107 0.707107 285 37.2131)" fill="url(#paint13_linear_78_230)"/>
<rect width="10" height="10" transform="matrix(-0.707107 -0.707107 -0.707107 0.707107 255 37.2131)" fill="url(#paint14_linear_78_230)"/>
<rect width="10" height="10" transform="matrix(-0.707107 -0.707107 -0.707107 0.707107 225 37.2131)" fill="url(#paint15_linear_78_230)"/>
<rect width="10" height="10" transform="matrix(-0.707107 -0.707107 -0.707107 0.707107 195 37.2131)" fill="url(#paint16_linear_78_230)"/>
<rect width="10" height="10" transform="matrix(-0.707107 -0.707107 -0.707107 0.707107 165 37.2131)" fill="url(#paint17_linear_78_230)"/>
<rect width="10" height="10" transform="matrix(-0.707107 -0.707107 -0.707107 0.707107 135 37.2131)" fill="url(#paint18_linear_78_230)"/>
<rect width="10" height="10" transform="matrix(-0.707107 -0.707107 -0.707107 0.707107 105 37.2131)" fill="url(#paint19_linear_78_230)"/>
<rect width="10" height="10" transform="matrix(-0.707107 -0.707107 -0.707107 0.707107 75 37.2131)" fill="url(#paint20_linear_78_230)"/>
<rect width="10" height="10" transform="matrix(-0.707107 -0.707107 -0.707107 0.707107 315 67.3553)" fill="url(#paint21_linear_78_230)"/>
<rect width="10" height="10" transform="matrix(-0.707107 -0.707107 -0.707107 0.707107 285 67.3553)" fill="url(#paint22_linear_78_230)"/>
<rect width="10" height="10" transform="matrix(-0.707107 -0.707107 -0.707107 0.707107 255 67.3553)" fill="url(#paint23_linear_78_230)"/>
<rect width="10" height="10" transform="matrix(-0.707107 -0.707107 -0.707107 0.707107 225 67.3553)" fill="url(#paint24_linear_78_230)"/>
<rect width="10" height="10" transform="matrix(-0.707107 -0.707107 -0.707107 0.707107 195 67.3553)" fill="url(#paint25_linear_78_230)"/>
<rect width="10" height="10" transform="matrix(-0.707107 -0.707107 -0.707107 0.707107 165 67.3553)" fill="url(#paint26_linear_78_230)"/>
<rect width="10" height="10" transform="matrix(-0.707107 -0.707107 -0.707107 0.707107 135 67.3553)" fill="url(#paint27_linear_78_230)"/>
<rect width="10" height="10" transform="matrix(-0.707107 -0.707107 -0.707107 0.707107 315 97.4974)" fill="url(#paint28_linear_78_230)"/>
<rect width="10" height="10" transform="matrix(-0.707107 -0.707107 -0.707107 0.707107 285 97.4974)" fill="url(#paint29_linear_78_230)"/>
<rect width="10" height="10" transform="matrix(-0.707107 -0.707107 -0.707107 0.707107 255 97.4974)" fill="url(#paint30_linear_78_230)"/>
<rect width="10" height="10" transform="matrix(-0.707107 -0.707107 -0.707107 0.707107 225 97.4974)" fill="url(#paint31_linear_78_230)"/>
<rect width="10" height="10" transform="matrix(-0.707107 -0.707107 -0.707107 0.707107 195 97.4974)" fill="url(#paint32_linear_78_230)"/>
<rect width="10" height="10" transform="matrix(-0.707107 -0.707107 -0.707107 0.707107 315 127.64)" fill="url(#paint33_linear_78_230)"/>
<rect width="10" height="10" transform="matrix(-0.707107 -0.707107 -0.707107 0.707107 285 127.64)" fill="url(#paint34_linear_78_230)"/>
<rect width="10" height="10" transform="matrix(-0.707107 -0.707107 -0.707107 0.707107 255 127.64)" fill="url(#paint35_linear_78_230)"/>
<rect width="10" height="10" transform="matrix(-0.707107 -0.707107 -0.707107 0.707107 315 157.782)" fill="url(#paint36_linear_78_230)"/>
<defs>
<linearGradient id="paint0_linear_78_230" x1="5" y1="0" x2="5" y2="10" gradientUnits="userSpaceOnUse">
<stop stop-color="#DC3545"/>
<stop offset="1" stop-color="#FD7E14"/>
</linearGradient>
<linearGradient id="paint1_linear_78_230" x1="5" y1="0" x2="5" y2="10" gradientUnits="userSpaceOnUse">
<stop stop-color="#DC3545"/>
<stop offset="1" stop-color="#FD7E14"/>
</linearGradient>
<linearGradient id="paint2_linear_78_230" x1="5" y1="0" x2="5" y2="10" gradientUnits="userSpaceOnUse">
<stop stop-color="#DC3545"/>
<stop offset="1" stop-color="#FD7E14"/>
</linearGradient>
<linearGradient id="paint3_linear_78_230" x1="5" y1="0" x2="5" y2="10" gradientUnits="userSpaceOnUse">
<stop stop-color="#DC3545"/>
<stop offset="1" stop-color="#FD7E14"/>
</linearGradient>
<linearGradient id="paint4_linear_78_230" x1="5" y1="0" x2="5" y2="10" gradientUnits="userSpaceOnUse">
<stop stop-color="#DC3545"/>
<stop offset="1" stop-color="#FD7E14"/>
</linearGradient>
<linearGradient id="paint5_linear_78_230" x1="5" y1="0" x2="5" y2="10" gradientUnits="userSpaceOnUse">
<stop stop-color="#DC3545"/>
<stop offset="1" stop-color="#FD7E14"/>
</linearGradient>
<linearGradient id="paint6_linear_78_230" x1="5" y1="0" x2="5" y2="10" gradientUnits="userSpaceOnUse">
<stop stop-color="#DC3545"/>
<stop offset="1" stop-color="#FD7E14"/>
</linearGradient>
<linearGradient id="paint7_linear_78_230" x1="5" y1="0" x2="5" y2="10" gradientUnits="userSpaceOnUse">
<stop stop-color="#DC3545"/>
<stop offset="1" stop-color="#FD7E14"/>
</linearGradient>
<linearGradient id="paint8_linear_78_230" x1="5" y1="0" x2="5" y2="10" gradientUnits="userSpaceOnUse">
<stop stop-color="#DC3545"/>
<stop offset="1" stop-color="#FD7E14"/>
</linearGradient>
<linearGradient id="paint9_linear_78_230" x1="5" y1="0" x2="5" y2="10" gradientUnits="userSpaceOnUse">
<stop stop-color="#DC3545"/>
<stop offset="1" stop-color="#FD7E14"/>
</linearGradient>
<linearGradient id="paint10_linear_78_230" x1="5" y1="0" x2="5" y2="10" gradientUnits="userSpaceOnUse">
<stop stop-color="#DC3545"/>
<stop offset="1" stop-color="#FD7E14"/>
</linearGradient>
<linearGradient id="paint11_linear_78_230" x1="5" y1="0" x2="5" y2="10" gradientUnits="userSpaceOnUse">
<stop stop-color="#DC3545"/>
<stop offset="1" stop-color="#FD7E14"/>
</linearGradient>
<linearGradient id="paint12_linear_78_230" x1="5" y1="0" x2="5" y2="10" gradientUnits="userSpaceOnUse">
<stop stop-color="#DC3545"/>
<stop offset="1" stop-color="#FD7E14"/>
</linearGradient>
<linearGradient id="paint13_linear_78_230" x1="5" y1="0" x2="5" y2="10" gradientUnits="userSpaceOnUse">
<stop stop-color="#DC3545"/>
<stop offset="1" stop-color="#FD7E14"/>
</linearGradient>
<linearGradient id="paint14_linear_78_230" x1="5" y1="0" x2="5" y2="10" gradientUnits="userSpaceOnUse">
<stop stop-color="#DC3545"/>
<stop offset="1" stop-color="#FD7E14"/>
</linearGradient>
<linearGradient id="paint15_linear_78_230" x1="5" y1="0" x2="5" y2="10" gradientUnits="userSpaceOnUse">
<stop stop-color="#DC3545"/>
<stop offset="1" stop-color="#FD7E14"/>
</linearGradient>
<linearGradient id="paint16_linear_78_230" x1="5" y1="0" x2="5" y2="10" gradientUnits="userSpaceOnUse">
<stop stop-color="#DC3545"/>
<stop offset="1" stop-color="#FD7E14"/>
</linearGradient>
<linearGradient id="paint17_linear_78_230" x1="5" y1="0" x2="5" y2="10" gradientUnits="userSpaceOnUse">
<stop stop-color="#DC3545"/>
<stop offset="1" stop-color="#FD7E14"/>
</linearGradient>
<linearGradient id="paint18_linear_78_230" x1="5" y1="0" x2="5" y2="10" gradientUnits="userSpaceOnUse">
<stop stop-color="#DC3545"/>
<stop offset="1" stop-color="#FD7E14"/>
</linearGradient>
<linearGradient id="paint19_linear_78_230" x1="5" y1="0" x2="5" y2="10" gradientUnits="userSpaceOnUse">
<stop stop-color="#DC3545"/>
<stop offset="1" stop-color="#FD7E14"/>
</linearGradient>
<linearGradient id="paint20_linear_78_230" x1="5" y1="0" x2="5" y2="10" gradientUnits="userSpaceOnUse">
<stop stop-color="#DC3545"/>
<stop offset="1" stop-color="#FD7E14"/>
</linearGradient>
<linearGradient id="paint21_linear_78_230" x1="5" y1="0" x2="5" y2="10" gradientUnits="userSpaceOnUse">
<stop stop-color="#DC3545"/>
<stop offset="1" stop-color="#FD7E14"/>
</linearGradient>
<linearGradient id="paint22_linear_78_230" x1="5" y1="0" x2="5" y2="10" gradientUnits="userSpaceOnUse">
<stop stop-color="#DC3545"/>
<stop offset="1" stop-color="#FD7E14"/>
</linearGradient>
<linearGradient id="paint23_linear_78_230" x1="5" y1="0" x2="5" y2="10" gradientUnits="userSpaceOnUse">
<stop stop-color="#DC3545"/>
<stop offset="1" stop-color="#FD7E14"/>
</linearGradient>
<linearGradient id="paint24_linear_78_230" x1="5" y1="0" x2="5" y2="10" gradientUnits="userSpaceOnUse">
<stop stop-color="#DC3545"/>
<stop offset="1" stop-color="#FD7E14"/>
</linearGradient>
<linearGradient id="paint25_linear_78_230" x1="5" y1="0" x2="5" y2="10" gradientUnits="userSpaceOnUse">
<stop stop-color="#DC3545"/>
<stop offset="1" stop-color="#FD7E14"/>
</linearGradient>
<linearGradient id="paint26_linear_78_230" x1="5" y1="0" x2="5" y2="10" gradientUnits="userSpaceOnUse">
<stop stop-color="#DC3545"/>
<stop offset="1" stop-color="#FD7E14"/>
</linearGradient>
<linearGradient id="paint27_linear_78_230" x1="5" y1="0" x2="5" y2="10" gradientUnits="userSpaceOnUse">
<stop stop-color="#DC3545"/>
<stop offset="1" stop-color="#FD7E14"/>
</linearGradient>
<linearGradient id="paint28_linear_78_230" x1="5" y1="0" x2="5" y2="10" gradientUnits="userSpaceOnUse">
<stop stop-color="#DC3545"/>
<stop offset="1" stop-color="#FD7E14"/>
</linearGradient>
<linearGradient id="paint29_linear_78_230" x1="5" y1="0" x2="5" y2="10" gradientUnits="userSpaceOnUse">
<stop stop-color="#DC3545"/>
<stop offset="1" stop-color="#FD7E14"/>
</linearGradient>
<linearGradient id="paint30_linear_78_230" x1="5" y1="0" x2="5" y2="10" gradientUnits="userSpaceOnUse">
<stop stop-color="#DC3545"/>
<stop offset="1" stop-color="#FD7E14"/>
</linearGradient>
<linearGradient id="paint31_linear_78_230" x1="5" y1="0" x2="5" y2="10" gradientUnits="userSpaceOnUse">
<stop stop-color="#DC3545"/>
<stop offset="1" stop-color="#FD7E14"/>
</linearGradient>
<linearGradient id="paint32_linear_78_230" x1="5" y1="0" x2="5" y2="10" gradientUnits="userSpaceOnUse">
<stop stop-color="#DC3545"/>
<stop offset="1" stop-color="#FD7E14"/>
</linearGradient>
<linearGradient id="paint33_linear_78_230" x1="5" y1="0" x2="5" y2="10" gradientUnits="userSpaceOnUse">
<stop stop-color="#DC3545"/>
<stop offset="1" stop-color="#FD7E14"/>
</linearGradient>
<linearGradient id="paint34_linear_78_230" x1="5" y1="0" x2="5" y2="10" gradientUnits="userSpaceOnUse">
<stop stop-color="#DC3545"/>
<stop offset="1" stop-color="#FD7E14"/>
</linearGradient>
<linearGradient id="paint35_linear_78_230" x1="5" y1="0" x2="5" y2="10" gradientUnits="userSpaceOnUse">
<stop stop-color="#DC3545"/>
<stop offset="1" stop-color="#FD7E14"/>
</linearGradient>
<linearGradient id="paint36_linear_78_230" x1="5" y1="0" x2="5" y2="10" gradientUnits="userSpaceOnUse">
<stop stop-color="#DC3545"/>
<stop offset="1" stop-color="#FD7E14"/>
</linearGradient>
</defs>
</svg>
